{
	"asset":{
		"generator":"Khronos glTF Blender I/O v4.5.48",
		"version":"2.0"
	},
	"scene":0,
	"scenes":[
		{
			"name":"Scene",
			"nodes":[
				0
			]
		}
	],
	"nodes":[
		{
			"mesh":0,
			"name":"Nav mesh"
		}
	],
	"meshes":[
		{
			"name":"Plane",
			"primitives":[
				{
					"attributes":{
						"POSITION":0,
						"NORMAL":1,
						"TEXCOORD_0":2
					},
					"indices":3
				}
			]
		}
	],
	"accessors":[
		{
			"bufferView":0,
			"componentType":5126,
			"count":191,
			"max":[
				83.15609741210938,
				0.30837827920913696,
				69.68157958984375
			],
			"min":[
				-78.08154296875,
				0.30837827920913696,
				-76.38236236572266
			],
			"type":"VEC3"
		},
		{
			"bufferView":1,
			"componentType":5126,
			"count":191,
			"type":"VEC3"
		},
		{
			"bufferView":2,
			"componentType":5126,
			"count":191,
			"type":"VEC2"
		},
		{
			"bufferView":3,
			"componentType":5123,
			"count":669,
			"type":"SCALAR"
		}
	],
	"bufferViews":[
		{
			"buffer":0,
			"byteLength":2292,
			"byteOffset":0,
			"target":34962
		},
		{
			"buffer":0,
			"byteLength":2292,
			"byteOffset":2292,
			"target":34962
		},
		{
			"buffer":0,
			"byteLength":1528,
			"byteOffset":4584,
			"target":34962
		},
		{
			"buffer":0,
			"byteLength":1338,
			"byteOffset":6112,
			"target":34963
		}
	],
	"buffers":[
		{
			"byteLength":7452,
			"uri":"data:application/octet-stream;base64,"
		}
	]
}
